<svg width="24" height="24" viewBox="0 0 24 24" fill="none" xmlns="http://www.w3.org/2000/svg">
<g clip-path="url(#clip0_3253_30074)">
<path d="M12 0C5.38317 0 0 5.38317 0 12C0 18.6168 5.38317 24 12 24C18.6168 24 24 18.6168 24 12C24 5.38317 18.6168 0 12 0ZM12 22.5C6.21028 22.5 1.5 17.7897 1.5 12C1.5 6.21028 6.21028 1.5 12 1.5C17.7897 1.5 22.5 6.21028 22.5 12C22.5 17.7897 17.7897 22.5 12 22.5ZM18.1238 6.95091C18.1925 7.02144 18.2467 7.10482 18.2832 7.19629C18.3197 7.28776 18.3379 7.38553 18.3366 7.48402C18.3354 7.5825 18.3147 7.67978 18.2758 7.77028C18.237 7.86079 18.1807 7.94275 18.1102 8.0115L10.7039 15.2302C10.5652 15.3654 10.3797 15.4417 10.186 15.4431C9.99238 15.4446 9.80569 15.3711 9.66502 15.238L6.19627 11.9567C6.12382 11.8893 6.06545 11.8081 6.02451 11.718C5.98357 11.6279 5.96088 11.5306 5.95775 11.4316C5.95461 11.3327 5.97109 11.2341 6.00624 11.1416C6.04138 11.049 6.0945 10.9644 6.16252 10.8924C6.23055 10.8205 6.31214 10.7628 6.40258 10.7226C6.49303 10.6823 6.59054 10.6604 6.6895 10.6581C6.78846 10.6557 6.88691 10.673 6.97917 10.7088C7.07143 10.7447 7.15567 10.7985 7.22705 10.8671L10.1726 13.6534L17.0632 6.9375C17.2056 6.79865 17.3974 6.72205 17.5963 6.72456C17.7951 6.72708 17.9849 6.8085 18.1238 6.95091Z" fill="#19724E"/>
</g>
<defs>
<clipPath id="clip0_3253_30074">
<rect width="24" height="24" fill="white"/>
</clipPath>
</defs>
</svg>
