<svg width="26" height="21" viewBox="0 0 26 21" fill="none" xmlns="http://www.w3.org/2000/svg">
<path d="M23.6474 20.288C24.0919 20.6158 24.718 20.5212 25.0458 20.0767C25.3736 19.6322 25.2789 19.0061 24.8344 18.6783L24.2409 19.4832L23.6474 20.288ZM0.850716 1.3562C0.304633 1.43873 -0.0711499 1.94832 0.0113811 2.49441L1.35631 11.3933C1.43884 11.9394 1.94843 12.3152 2.49451 12.2327C3.0406 12.1502 3.41638 11.6406 3.33385 11.0945L2.13836 3.18431L10.0485 1.98882C10.5946 1.90629 10.9704 1.39669 10.8879 0.85061C10.8053 0.304526 10.2957 -0.0712569 9.74966 0.0112747L0.850716 1.3562ZM24.2409 19.4832L24.8344 18.6783L1.59365 1.54014L1.00015 2.34497L0.406653 3.14981L23.6474 20.288L24.2409 19.4832Z" fill="url(#paint0_linear_4271_40489)"/>
<defs>
<linearGradient id="paint0_linear_4271_40489" x1="24.5431" y1="19.0734" x2="1.53339" y2="1.63039" gradientUnits="userSpaceOnUse">
<stop stop-color="#FE5C96"/>
<stop offset="1" stop-color="#FB5D48"/>
</linearGradient>
</defs>
</svg>
