<svg width="24" height="24" viewBox="0 0 24 24" fill="none" xmlns="http://www.w3.org/2000/svg">
<path fill-rule="evenodd" clip-rule="evenodd" d="M3.99047 16.854L2.67647 20.358C2.62601 20.4928 2.61544 20.6393 2.646 20.78C2.67657 20.9207 2.74699 21.0496 2.84885 21.1514C2.95071 21.2532 3.07971 21.3234 3.22044 21.3539C3.36116 21.3843 3.50767 21.3736 3.64247 21.323L7.14547 20.009C7.54641 19.8588 7.91057 19.6245 8.21347 19.322L18.3605 9.17496C18.3605 9.17496 18.0065 8.11396 16.9465 7.05296C15.8865 5.99296 14.8245 5.63896 14.8245 5.63896L4.67747 15.786C4.37488 16.0889 4.14064 16.453 3.99047 16.854ZM16.2395 4.22396L17.6225 2.84096C17.8705 2.59296 18.2015 2.43496 18.5475 2.49296C19.0345 2.57296 19.7795 2.81496 20.4815 3.51796C21.1845 4.22096 21.4265 4.96496 21.5065 5.45196C21.5645 5.79796 21.4065 6.12896 21.1585 6.37696L19.7745 7.75996C19.7745 7.75996 19.4215 6.69996 18.3605 5.63996C17.3005 4.57796 16.2395 4.22396 16.2395 4.22396Z" fill="#6C6C75"/>
</svg>
