<svg width="24" height="24" viewBox="0 0 24 24" fill="none" xmlns="http://www.w3.org/2000/svg">
<path d="M12.002 22C6.47895 22 2.00195 17.523 2.00195 12C2.00195 6.477 6.47895 2 12.002 2C17.525 2 22.002 6.477 22.002 12C22.002 17.523 17.525 22 12.002 22ZM7.92195 9.234V9.336C7.92195 9.46861 7.97463 9.59579 8.0684 9.68955C8.16217 9.78332 8.28934 9.836 8.42195 9.836H9.41895C9.48448 9.836 9.54937 9.82309 9.60991 9.79802C9.67045 9.77294 9.72546 9.73618 9.7718 9.68985C9.81814 9.64351 9.85489 9.5885 9.87997 9.52796C9.90505 9.46742 9.91795 9.40253 9.91795 9.337C9.91795 8.047 10.916 7.358 12.258 7.358C13.566 7.358 14.426 8.047 14.426 9.028C14.426 9.956 13.944 10.387 12.74 10.938L12.396 11.092C11.381 11.54 11.002 12.21 11.002 13.381V13.5C11.002 13.6326 11.0546 13.7598 11.1484 13.8536C11.2422 13.9473 11.3693 14 11.502 14H12.499C12.5645 14 12.6294 13.9871 12.6899 13.962C12.7505 13.9369 12.8055 13.9002 12.8518 13.8538C12.8981 13.8075 12.9349 13.7525 12.96 13.692C12.985 13.6314 12.998 13.5665 12.998 13.501C12.998 12.985 13.136 12.778 13.548 12.589L13.893 12.434C15.338 11.78 16.422 10.92 16.422 9.044V8.941C16.422 6.963 14.702 5.5 12.258 5.5C9.77995 5.5 7.92195 6.928 7.92195 9.234ZM10.502 16.991C10.502 17.858 11.161 18.5 11.993 18.5C12.843 18.5 13.502 17.858 13.502 16.991C13.502 16.124 12.843 15.5 11.993 15.5C11.161 15.5 10.502 16.124 10.502 16.991Z" fill="#6C6C75"/>
</svg>
