<svg width="24" height="24" viewBox="0 0 24 24" fill="none" xmlns="http://www.w3.org/2000/svg">
<path d="M10.249 1.64606C10.6376 1.58831 11.0334 1.68534 11.3513 1.91632C11.6691 2.14729 11.8837 2.49375 11.9488 2.88122C12.0139 3.2687 11.9243 3.66625 11.6994 3.98841C11.4745 4.31058 11.1322 4.53163 10.746 4.60406C8.99897 4.90033 7.41326 5.80561 6.26996 7.15941C5.12666 8.5132 4.49963 10.2281 4.5 12.0001C4.5 13.9892 5.29018 15.8968 6.6967 17.3034C8.10322 18.7099 10.0109 19.5001 12 19.5001V22.5001C6.201 22.5001 1.5 17.8001 1.5 12.0001C1.5 6.85506 5.226 2.49006 10.249 1.64606Z" fill="url(#paint0_linear_3275_31851)"/>
<path d="M16.892 4.29811C17.0235 4.15136 17.1827 4.03197 17.3604 3.94676C17.5381 3.86155 17.7309 3.8122 17.9277 3.80152C18.1245 3.79084 18.3214 3.81904 18.5073 3.88452C18.6932 3.95 18.8643 4.05146 19.011 4.18311C20.11 5.16714 20.9888 6.37209 21.59 7.71914C22.1913 9.06618 22.5013 10.525 22.5 12.0001C22.5 17.8001 17.799 22.5001 12 22.5001V19.5001C13.5182 19.5001 15.0006 19.0394 16.2513 18.1789C17.502 17.3184 18.4621 16.0985 19.0047 14.6806C19.5473 13.2628 19.6469 11.7136 19.2902 10.2379C18.9335 8.76228 18.1373 7.42961 17.007 6.41611C16.7109 6.15048 16.5325 5.77812 16.5109 5.38093C16.4893 4.98374 16.6264 4.59424 16.892 4.29811Z" fill="url(#paint1_linear_3275_31851)"/>
<defs>
<linearGradient id="paint0_linear_3275_31851" x1="1.5" y1="12.2547" x2="12" y2="12.2571" gradientUnits="userSpaceOnUse">
<stop stop-color="#FE5C96"/>
<stop offset="1" stop-color="#FB5D48" stop-opacity="0.55"/>
</linearGradient>
<linearGradient id="paint1_linear_3275_31851" x1="12" y1="13.3197" x2="22.5" y2="13.3224" gradientUnits="userSpaceOnUse">
<stop stop-color="#FE5C96" stop-opacity="0"/>
<stop offset="1" stop-color="#FB5D48" stop-opacity="0.55"/>
</linearGradient>
</defs>
</svg>
