<svg width="24" height="24" viewBox="0 0 24 24" fill="none" xmlns="http://www.w3.org/2000/svg">
<path d="M22.003 8.5C22.003 11.76 19.603 14.45 16.483 14.92V14.86C16.173 10.98 13.023 7.83 9.11301 7.52H9.08301C9.55301 4.4 12.243 2 15.503 2C19.093 2 22.003 4.91 22.003 8.5Z" fill="#6C6C75"/>
<path d="M14.982 14.98C14.732 11.81 12.192 9.27 9.02195 9.02C8.85195 9.01 8.67195 9 8.50195 9C4.91195 9 2.00195 11.91 2.00195 15.5C2.00195 19.09 4.91195 22 8.50195 22C12.092 22 15.002 19.09 15.002 15.5C15.002 15.33 14.992 15.15 14.982 14.98ZM9.38195 16.38L8.50195 18L7.62195 16.38L6.00195 15.5L7.62195 14.62L8.50195 13L9.38195 14.62L11.002 15.5L9.38195 16.38Z" fill="#6C6C75"/>
</svg>
