<svg width="24" height="24" viewBox="0 0 24 24" fill="none" xmlns="http://www.w3.org/2000/svg">
<path d="M12 11.1664C13.2155 11.1664 14.3813 10.6835 15.2408 9.82398C16.1003 8.96447 16.5832 7.79872 16.5832 6.58318C16.5832 5.36765 16.1003 4.2019 15.2408 3.34238C14.3813 2.48287 13.2155 2 12 2C10.7845 2 9.61871 2.48287 8.7592 3.34238C7.89969 4.2019 7.41682 5.36765 7.41682 6.58318C7.41682 7.79872 7.89969 8.96447 8.7592 9.82398C9.61871 10.6835 10.7845 11.1664 12 11.1664ZM12 13.18C5.90636 13.18 2 16.5427 2 18.18V21.2373H22V18.18C22 16.2 18.3018 13.18 12 13.18Z" fill="#6C6C75"/>
</svg>
