<svg width="24" height="24" viewBox="0 0 24 24" fill="none" xmlns="http://www.w3.org/2000/svg">
<path d="M12 1C18.0751 1 23 5.92486 23 12C23 18.0751 18.0751 23 12 23C5.92486 23 1 18.0751 1 12C1 5.92487 5.92487 1 12 1ZM12 16.5C9.43219 16.5001 7.66965 17.1622 6.56934 17.791C6.19878 18.0028 5.9008 18.2138 5.66992 18.3965C7.2959 20.0057 9.53161 21 12 21C14.4681 21 16.7032 20.0054 18.3291 18.3965C18.0984 18.2139 17.8017 18.0026 17.4316 17.791C16.3313 17.1622 14.5681 16.5001 12 16.5ZM12 3C7.02943 3 3 7.02943 3 12C3 13.7822 3.52035 15.442 4.41406 16.8398C4.72063 16.5963 5.10624 16.3238 5.57715 16.0547C6.96622 15.2609 9.06889 14.5001 12 14.5C14.9314 14.5001 17.0347 15.2608 18.4238 16.0547C18.8943 16.3236 19.2786 16.5964 19.585 16.8398C20.4788 15.4419 21 13.7824 21 12C21 7.02944 16.9705 3 12 3Z" fill="url(#paint0_linear_3411_5170)"/>
<path d="M12 12C13.6569 12 15 10.6569 15 9C15 7.34315 13.6569 6 12 6C10.3431 6 9 7.34315 9 9C9 10.6569 10.3431 12 12 12Z" stroke="url(#paint1_linear_3411_5170)" stroke-width="2" stroke-linecap="round" stroke-linejoin="round"/>
<defs>
<linearGradient id="paint0_linear_3411_5170" x1="1" y1="12.2" x2="23" y2="12.2101" gradientUnits="userSpaceOnUse">
<stop stop-color="#FE5C96"/>
<stop offset="1" stop-color="#FB5D48"/>
</linearGradient>
<linearGradient id="paint1_linear_3411_5170" x1="9" y1="9.05455" x2="15" y2="9.0573" gradientUnits="userSpaceOnUse">
<stop stop-color="#FE5C96"/>
<stop offset="1" stop-color="#FB5D48"/>
</linearGradient>
</defs>
</svg>
