<svg width="20" height="20" viewBox="0 0 20 20" fill="none" xmlns="http://www.w3.org/2000/svg">
<path d="M0 19.5L1.37822 14.4952C0.526146 13.0263 0.0791547 11.3626 0.0838108 9.66196C0.0838108 4.33282 4.44197 0 9.7919 0C12.39 0 14.8299 1.00558 16.6597 2.83139C18.4943 4.6572 19.5046 7.08543 19.5 9.66659C19.5 14.9957 15.1418 19.3285 9.78724 19.3285H9.78259C8.15759 19.3285 6.56053 18.9208 5.1404 18.1515L0 19.5ZM5.38717 16.4045L5.68051 16.5806C6.91905 17.3127 8.33918 17.6974 9.78724 17.702H9.7919C14.2385 17.702 17.861 14.1014 17.861 9.67122C17.861 7.52567 17.0229 5.50986 15.5003 3.9899C13.9778 2.46994 11.9477 1.63581 9.7919 1.63581C5.34527 1.63118 1.72278 5.23182 1.72278 9.66196C1.72278 11.1773 2.14649 12.6555 2.95666 13.9345L3.14756 14.2404L2.33273 17.2015L5.38717 16.4045Z" fill="white"/>
<path d="M0 19.5L1.37822 14.4952C0.526146 13.0263 0.0791547 11.3626 0.0838108 9.66196C0.0838108 4.33282 4.44197 0 9.7919 0C12.39 0 14.8299 1.00558 16.6597 2.83139C18.4943 4.6572 19.5046 7.08543 19.5 9.66659C19.5 14.9957 15.1418 19.3285 9.78724 19.3285H9.78259C8.15759 19.3285 6.56053 18.9208 5.1404 18.1515L0 19.5ZM5.38717 16.4045L5.68051 16.5806C6.91905 17.3127 8.33918 17.6974 9.78724 17.702H9.7919C14.2385 17.702 17.861 14.1014 17.861 9.67122C17.861 7.52567 17.0229 5.50986 15.5003 3.9899C13.9778 2.46994 11.9477 1.63581 9.7919 1.63581C5.34527 1.63118 1.72278 5.23182 1.72278 9.66196C1.72278 11.1773 2.14649 12.6555 2.95666 13.9345L3.14756 14.2404L2.33273 17.2015L5.38717 16.4045Z" fill="white"/>
<path fill-rule="evenodd" clip-rule="evenodd" d="M7.3661 5.62116C7.18451 5.218 6.9936 5.20873 6.82133 5.2041C6.68164 5.19946 6.51868 5.19946 6.35571 5.19946C6.19274 5.19946 5.932 5.25971 5.7085 5.50067C5.48501 5.74164 4.86108 6.32553 4.86108 7.51648C4.86108 8.70279 5.73179 9.85203 5.85285 10.0142C5.97391 10.1764 7.53372 12.6927 9.99682 13.6612C12.0455 14.4675 12.4646 14.3053 12.9069 14.2636C13.3493 14.2219 14.341 13.6797 14.5459 13.1144C14.7461 12.549 14.7461 12.0671 14.6856 11.9651C14.625 11.8632 14.4621 11.803 14.22 11.6825C13.9778 11.562 12.7859 10.9781 12.5624 10.8947C12.3389 10.8159 12.1759 10.7742 12.0176 11.0152C11.8546 11.2561 11.389 11.7983 11.2493 11.9605C11.1096 12.1227 10.9653 12.1412 10.7232 12.0208C10.4811 11.9003 9.69883 11.6454 8.77226 10.8205C8.05055 10.181 7.56165 9.38863 7.42197 9.14766C7.28229 8.90669 7.408 8.77694 7.52906 8.65645C7.63615 8.54987 7.77118 8.37377 7.89224 8.23475C8.0133 8.09573 8.05521 7.99378 8.13436 7.83159C8.21352 7.6694 8.17627 7.53038 8.11574 7.4099C8.05521 7.29404 7.58028 6.09847 7.3661 5.62116Z" fill="white"/>
</svg>
